<svg width="26" height="27" viewBox="0 0 26 27" fill="none" xmlns="http://www.w3.org/2000/svg">
<path d="M13.1451 26.6023C9.37109 26.6023 6.35823 25.3338 4.01136 22.8283C1.6962 20.3229 0.522766 17.1514 0.522766 13.314C0.522766 9.47655 1.6962 6.33682 4.01136 3.79966C6.32651 1.29422 9.37109 0.0256348 13.1451 0.0256348C16.8874 0.0256348 19.9003 1.29422 22.2472 3.79966C24.594 6.3051 25.7358 9.47655 25.7358 13.314C25.7358 17.1514 24.5623 20.3229 22.2472 22.8283C19.9003 25.3338 16.8874 26.6023 13.1451 26.6023ZM13.1451 24.6043C16.1897 24.6043 18.6634 23.5578 20.5663 21.4329C22.4692 19.308 23.4206 16.6123 23.4206 13.314C23.4206 10.0157 22.4692 7.28824 20.598 5.19509C18.7269 3.10193 16.2214 2.02364 13.1451 2.02364C10.0371 2.02364 7.53166 3.07022 5.69222 5.19509C3.82107 7.28824 2.90135 10.0157 2.90135 13.314C2.90135 16.6123 3.82107 19.308 5.69222 21.4329C7.53166 23.526 10.0371 24.6043 13.1451 24.6043Z" fill="white"/>
</svg>
