<svg width="19" height="27" viewBox="0 0 19 27" fill="none" xmlns="http://www.w3.org/2000/svg">
<path d="M18.0458 26.1267H15.3501L8.08749 15.5024H2.37889V26.1267H0.158875V0.437988H9.83178C12.1152 0.437988 13.9864 1.104 15.4769 2.46772C16.9675 3.83144 17.697 5.63917 17.697 7.92261C17.697 10.1426 16.9993 11.9186 15.6038 13.2506C14.2084 14.5509 12.5275 15.2486 10.4978 15.3438L18.0458 26.1267ZM9.6415 13.5043C11.3541 13.5043 12.7495 12.9969 13.7961 11.9503C14.8744 10.9038 15.3818 9.57175 15.3818 7.95432C15.3818 6.33688 14.8427 5.00487 13.7961 3.99001C12.7178 2.97515 11.3541 2.43601 9.6415 2.43601H2.37889V13.4726H9.6415V13.5043Z" fill="white"/>
</svg>
