<svg width="22" height="27" viewBox="0 0 22 27" fill="none" xmlns="http://www.w3.org/2000/svg">
<path d="M21.9074 26.1267H15.5645L10.4585 16.9929H6.39906V26.1267H0.880737V0.437988H13.0274C15.6914 0.437988 17.8162 1.19915 19.3703 2.75316C20.9243 4.30717 21.7171 6.27346 21.7171 8.71547C21.7171 10.8086 21.178 12.5212 20.068 13.8215C18.958 15.1218 17.626 15.9781 16.0402 16.3269L21.9074 26.1267ZM12.2345 12.2041C13.3762 12.2041 14.296 11.8869 15.0254 11.2526C15.7548 10.6183 16.1037 9.79376 16.1037 8.71547C16.1037 7.66889 15.7548 6.8126 15.0254 6.17832C14.296 5.54403 13.3762 5.22688 12.2345 5.22688H6.43077V12.1406H12.2345V12.2041Z" fill="white"/>
</svg>
